<svg xmlns="http://www.w3.org/2000/svg" width="204" height="48"><g fill="none" fill-rule="evenodd"><path fill="#000" fill-rule="nonzero" d="m35.824 3.994-4.461 11.708c-1.99-1.378-5.628-3.444-9.334-3.444-.892 0-2.264.138-3.156.827-.618.482-.824.964-.824 1.652 0 .965.137 1.86 2.676 2.41l5.285 1.172c4.049.895 6.45 2.548 7.823 3.925 2.883 2.823 3.5 6.336 3.5 9.09 0 3.926-1.03 7.576-4.117 10.812C30.608 44.832 25.666 48 17.088 48c-7 0-11.666-1.997-15.578-3.581L0 43.799l5.01-12.947 1.784 1.378c1.716 1.308 5.216 3.374 9.265 3.374 2.265 0 3.225-.55 3.568-.826.755-.62.893-1.378.893-2.066 0-.414-.069-1.102-.55-1.584-.548-.551-1.44-.758-3.156-1.102l-4.05-.758c-2.607-.482-5.42-1.308-7.96-3.925-2.333-2.41-3.294-5.165-3.294-8.47 0-4.27 1.441-7.92 4.46-10.95C9.47 2.34 14.619 0 21.893 0c3.637 0 8.373.62 13.932 3.994Z"/><path fill="#000" d="M62.597 0c12.454 0 23.93 9.228 23.93 24.033C86.528 38.108 75.248 48 62.598 48c-13.954 0-23.93-10.49-23.93-24.033C38.667 9.693 49.556 0 62.597 0Zm0 32c4.522 0 7.977-3.125 7.977-8.188C70.574 19 67.434 16 62.597 16c-4.899 0-7.977 3.25-7.977 7.813C54.62 29 57.886 32 62.597 32Zm47.795-30.533c15.288 0 22.468 7.933 22.468 22.6 0 15.266-7.91 22.6-24.13 22.6H90.915c-.598 0-.665.066-.665-.6V2.133c0-.533.067-.666.665-.666h19.477Zm-1.928 32.666c4.454 0 8.442-2.466 8.442-10.266 0-7.267-3.59-9.867-8.31-9.867h-3.19v20.133h3.058ZM154.596 0l26.737 46.667h-16.001c-1.634-2.623-2.724-4.49-3.268-5.6h-15.865c-.59 1.244-1.612 3.11-3.065 5.6h-14.98L154.597 0Zm.258 22.667a48.392 48.392 0 0 1-1.058 2.253c-1.19 2.423-2.975 5.747-2.975 5.747h8s-1.653-3.38-2.909-5.747a48.391 48.391 0 0 1-1.058-2.253Z"/><path fill="#00D891" d="M198 46.667a6 6 0 1 1 0-12 6 6 0 0 1 0 12Zm-18.667-32a6 6 0 1 1 0-12 6 6 0 0 1 0 12Zm9.334 16a6 6 0 1 1 0-12 6 6 0 0 1 0 12Z"/></g></svg>